<svg xmlns="http://www.w3.org/2000/svg" version="1.1" xmlns:xlink="http://www.w3.org/1999/xlink" xmlns:svgjs="http://svgjs.dev/svgjs" width="2000" height="282" viewBox="0 0 2000 282"><g transform="matrix(1,0,0,1,-1.2121212121212466,0.9103004193650577)"><svg viewBox="0 0 396 56" data-background-color="#ffffff" preserveAspectRatio="xMidYMid meet" height="282" width="2000" xmlns="http://www.w3.org/2000/svg" xmlns:xlink="http://www.w3.org/1999/xlink"><g id="tight-bounds" transform="matrix(1,0,0,1,0.2400000000000091,-0.1807688776044074)"><svg viewBox="0 0 395.52 56.3615377552088" height="56.3615377552088" width="395.52"><g><svg viewBox="0 0 646.2037697205222 92.08393548913195" height="56.3615377552088" width="395.52"><g transform="matrix(1,0,0,1,250.6837697205223,29.450745961926923)"><svg viewBox="0 0 395.52 33.1824435652781" height="33.1824435652781" width="395.52"><g id="textblocktransform"><svg viewBox="0 0 395.52 33.1824435652781" height="33.1824435652781" width="395.52" id="textblock"><g><svg viewBox="0 0 395.52 33.1824435652781" height="33.1824435652781" width="395.52"><g transform="matrix(1,0,0,1,0,0)"><svg width="395.52" viewBox="2.05 -35.55 429.67 36.05" height="33.1824435652781" data-palette-color="#651818"><path d="M19.5-0.5L19.5-0.5Q21.95-0.5 22.63-1.4 23.3-2.3 23.3-4.45L23.3-4.45 23.3-14.15 20.1-14.15 20.1-15.25 34.5-15.25 34.5-14.15 32.55-14.15 32.55-0.05 31.8-0.05Q30.9-1.3 29.25-1.3L29.25-1.3Q28.55-1.3 25.08-0.4 21.6 0.5 19.15 0.5L19.15 0.5Q11 0.5 6.53-3.9 2.05-8.3 2.05-17.13 2.05-25.95 6.73-30.75 11.4-35.55 19.3-35.55L19.3-35.55Q22.35-35.55 25.43-34.77 28.5-34 29-34 29.5-34 29.75-34.23 30-34.45 30.3-35L30.3-35 30.85-35 31.25-24.15 30.35-24.15Q27.9-29 25.43-31.78 22.95-34.55 19.9-34.55L19.9-34.55Q12.25-34.55 12.25-19.6L12.25-19.6 12.25-15.65Q12.25-8.15 14.13-4.33 16-0.5 19.5-0.5ZM37.2-33.9L37.2-35 55.2-35 55.2-33.9 49.9-33.9 49.9-1.1 51.7-1.1Q55.95-1.1 58.47-3.7 61-6.3 63.6-11.7L63.6-11.7 64.65-11.7 63.7 0 37.2 0 37.2-1.1 40.15-1.1 40.15-33.9 37.2-33.9ZM90.5-15.45L90.5-15.45 90.5-19.15Q90.5-28.3 89.6-30.7L89.6-30.7Q88.6-33.45 86.75-34.1L86.75-34.1Q85.7-34.5 84.2-34.5 82.7-34.5 81.62-34.1 80.55-33.7 79.85-32.7 79.15-31.7 78.72-30.6 78.3-29.5 78.05-27.5L78.05-27.5Q77.75-24.6 77.75-18.95L77.75-18.95 77.75-15.35Q77.75-9.25 78.22-6.68 78.7-4.1 79.4-3L79.4-3Q80.95-0.55 84.2-0.55L84.2-0.55Q88.15-0.55 89.32-3.88 90.5-7.2 90.5-15.45ZM84.1 0.5Q75.75 0.5 71.62-4.03 67.5-8.55 67.5-17.13 67.5-25.7 71.92-30.63 76.35-35.55 84.45-35.55 92.55-35.55 96.67-30.88 100.8-26.2 100.8-17.6 100.8-9 96.62-4.25 92.45 0.5 84.1 0.5ZM103.89-34.05L103.89-35 118.84-35Q125.79-35 129.27-33.13 132.74-31.25 132.74-26.8L132.74-26.8Q132.74-19.95 124.49-18.6L124.49-18.6 124.49-18.5Q134.49-17.25 134.49-9.8L134.49-9.8Q134.49-4.35 130.39-2.18 126.29 0 118.59 0L118.59 0 103.89 0 103.89-0.95 107.14-0.95 107.14-34.05 103.89-34.05ZM118.04-17.7L116.89-17.7 116.89-0.95 119.24-0.95Q121.99-0.95 123.09-2.85 124.19-4.75 124.19-8.45L124.19-8.45 124.19-11.1Q124.19-14.4 122.84-16.05 121.49-17.7 118.04-17.7L118.04-17.7ZM118.49-34.05L116.89-34.05 116.89-18.65 118.19-18.65Q120.79-18.65 121.82-20.23 122.84-21.8 122.84-25.05L122.84-25.05 122.84-27.4Q122.84-31.1 121.94-32.58 121.04-34.05 118.49-34.05L118.49-34.05ZM152.34-0.95L155.89-0.95 152.24-11.75 142.34-11.75 138.49-0.95 142.24-0.95 142.24 0 134.59 0 134.59-0.95 136.94-0.95 149.69-35.3 153.79-35.3 166.39-0.95 168.69-0.95 168.69 0 152.34 0 152.34-0.95ZM151.84-12.85L147.49-25.95 142.79-12.85 151.84-12.85ZM170.04-33.9L170.04-35 188.04-35 188.04-33.9 182.74-33.9 182.74-1.1 184.54-1.1Q188.79-1.1 191.31-3.7 193.84-6.3 196.44-11.7L196.44-11.7 197.49-11.7 196.54 0 170.04 0 170.04-1.1 172.99-1.1 172.99-33.9 170.04-33.9ZM229.18-9.25L235.18-35 248.53-35 248.53-34.05 245.78-34.05 245.78-0.95 248.53-0.95 248.53 0 233.28 0 233.28-0.95 236.03-0.95 236.03-32.2 235.83-32.2 228.33 0 222.08 0 213.28-32.35 213.08-32.35 213.08-0.95 215.83-0.95 215.83 0 209.03 0 209.03-0.95 211.78-0.95 211.78-34.05 209.03-34.05 209.03-35 222.53-35 229.18-9.25ZM251.03-34.05L251.03-35 266.28-35 266.28-34.05 263.53-34.05 263.53-0.95 266.28-0.95 266.28 0 251.03 0 251.03-0.95 253.78-0.95 253.78-34.05 251.03-34.05ZM287.03-0.5L287.03-0.5Q289.48-0.5 290.15-1.4 290.83-2.3 290.83-4.45L290.83-4.45 290.83-14.15 287.63-14.15 287.63-15.25 302.03-15.25 302.03-14.15 300.08-14.15 300.08-0.05 299.33-0.05Q298.43-1.3 296.78-1.3L296.78-1.3Q296.08-1.3 292.6-0.4 289.13 0.5 286.68 0.5L286.68 0.5Q278.53 0.5 274.05-3.9 269.58-8.3 269.58-17.13 269.58-25.95 274.25-30.75 278.93-35.55 286.83-35.55L286.83-35.55Q289.88-35.55 292.95-34.77 296.03-34 296.53-34 297.03-34 297.28-34.23 297.53-34.45 297.83-35L297.83-35 298.38-35 298.78-24.15 297.88-24.15Q295.43-29 292.95-31.78 290.48-34.55 287.43-34.55L287.43-34.55Q279.78-34.55 279.78-19.6L279.78-19.6 279.78-15.65Q279.78-8.15 281.65-4.33 283.53-0.5 287.03-0.5ZM320.07-17.7L320.07-17.7 317.43-17.7 317.43-0.95 320.68-0.95 320.68 0 304.43 0 304.43-0.95 307.68-0.95 307.68-34.05 304.43-34.05 304.43-35 319.53-35Q326.03-35 328.75-34.33 331.48-33.65 332.57-32.7L332.57-32.7Q334.98-30.75 334.98-26.5 334.98-22.25 332.88-20.43 330.78-18.6 326.48-18.25L326.48-18.25 326.48-18.1Q330.53-17.55 332.13-15.7 333.73-13.85 333.73-9.5L333.73-9.5 333.73-6.85Q333.73-4.25 334-3.35 334.28-2.45 335.18-2.45 336.07-2.45 336.6-3.28 337.13-4.1 337.57-6.75L337.57-6.75 338.43-6.65Q337.88-2.4 336.5-0.95 335.13 0.5 331.03 0.5 326.93 0.5 325.2-1.43 323.48-3.35 323.48-8.65L323.48-8.65 323.48-12.3Q323.48-15.1 322.75-16.4 322.03-17.7 320.07-17.7ZM319.07-34.05L317.43-34.05 317.43-18.65 319.03-18.65Q321.88-18.65 323.25-20.4 324.63-22.15 324.63-26.1L324.63-26.1 324.63-27.55Q324.63-31.5 323.3-32.77 321.98-34.05 319.07-34.05L319.07-34.05ZM357.02-0.95L360.57-0.95 356.92-11.75 347.02-11.75 343.17-0.95 346.92-0.95 346.92 0 339.27 0 339.27-0.95 341.62-0.95 354.37-35.3 358.47-35.3 371.07-0.95 373.37-0.95 373.37 0 357.02 0 357.02-0.95ZM356.52-12.85L352.17-25.95 347.47-12.85 356.52-12.85ZM370.97-35L400.47-35 400.97-22.45 400.02-22.45Q397.82-29.1 396.12-31.53 394.42-33.95 391.22-33.95L391.22-33.95 390.62-33.95 390.62-1.05 394.87-1.05 394.87 0 376.62 0 376.62-1.05 380.87-1.05 380.87-33.95 380.22-33.95Q377.02-33.95 375.27-31.43 373.52-28.9 371.42-22.45L371.42-22.45 370.47-22.45 370.97-35ZM403.87-33.9L403.87-35 429.87-35 430.37-25.1 429.47-25.1Q427.37-30.15 425.07-32.02 422.77-33.9 418.32-33.9L418.32-33.9 416.57-33.9 416.57-18.45 418.27-18.45Q420.62-18.45 422.22-20.23 423.82-22 424.47-25L424.47-25 425.22-25 425.22-10.2 424.37-10.2Q423.47-13.95 421.94-15.55 420.42-17.15 417.77-17.15L417.77-17.15 416.57-17.15 416.57-1.1 418.47-1.1Q423.07-1.1 426.29-3.85 429.52-6.6 430.72-10.9L430.72-10.9 431.72-10.9 431.32 0 403.87 0 403.87-1.1 406.82-1.1 406.82-33.9 403.87-33.9Z" opacity="1" transform="matrix(1,0,0,1,0,0)" fill="#ffffff" class="wordmark-text-0" data-fill-palette-color="primary" id="text-0"></path></svg></g></svg></g></svg></g></svg></g><g><svg viewBox="0 0 242.8501911734057 92.08393548913195" height="92.08393548913195" width="242.8501911734057"><g><svg xmlns="http://www.w3.org/2000/svg" xmlns:xlink="http://www.w3.org/1999/xlink" version="1.1" x="0" y="0" viewBox="0 31.042 100 37.91799999999999" enable-background="new 0 0 100 100" xml:space="preserve" height="92.08393548913195" width="242.8501911734057" class="icon-icon-0" data-fill-palette-color="accent" id="icon-0"><path d="M23.545 51.412C29.934 51.182 36.322 50.951 42.711 50.722 41.52 48.752 41.222 47.03 38.944 46.733L28.719 45.401 8.883 42.817C9.476 43.773 18.728 51.585 23.545 51.412" fill="#ffffff" data-fill-palette-color="accent"></path><path d="M0 31.042C2.07 34.463 12.547 41.919 15.536 42.303 23.706 43.355 31.875 44.406 40.045 45.456 38.445 42.812 38.074 41.048 35.184 40.289L22.588 36.978z" fill="#ffffff" data-fill-palette-color="accent"></path><path d="M29.752 57.642L44.481 54.501C43.525 52.924 43.522 51.975 41.734 52.055L33.026 52.443 16.984 53.159C17.584 53.803 25.901 58.462 29.752 57.642" fill="#ffffff" data-fill-palette-color="accent"></path><path d="M41.337 68.959C44.036 67.205 44.761 65.318 46.296 62.449 48.018 59.232 46.889 58.752 44.966 55.568 44.77 55.244 42.212 55.677 41.924 55.995 41.572 56.381 41.807 58.566 41.785 59.057z" fill="#ffffff" data-fill-palette-color="accent"></path><path d="M40.709 56.34C38.92 56.722 36.652 56.431 36.196 58.334L34.254 66.447C38.613 65.406 40.558 60.175 40.709 56.34" fill="#ffffff" data-fill-palette-color="accent"></path><path d="M35.201 57.601C30.888 58.522 30.978 59.775 29.129 63.815 32.062 63.536 34.798 60.345 35.201 57.601" fill="#ffffff" data-fill-palette-color="accent"></path><path d="M91.116 42.816L71.279 45.4C67.871 45.844 64.463 46.289 61.054 46.732 58.778 47.029 58.479 48.752 57.288 50.721 63.677 50.95 70.065 51.181 76.454 51.411 81.271 51.585 90.523 43.773 91.116 42.816" fill="#ffffff" data-fill-palette-color="accent"></path><path d="M77.413 36.978L64.816 40.289C61.926 41.048 61.554 42.812 59.956 45.456L84.464 42.303C87.453 41.919 97.931 34.463 100 31.042z" fill="#ffffff" data-fill-palette-color="accent"></path><path d="M83.017 53.158L66.975 52.442 58.266 52.054C56.478 51.974 56.476 52.923 55.52 54.5L70.249 57.641C74.098 58.462 82.415 53.803 83.017 53.158" fill="#ffffff" data-fill-palette-color="accent"></path><path d="M58.215 59.058C58.193 58.567 58.428 56.381 58.076 55.996 57.787 55.679 55.23 55.245 55.034 55.569 53.11 58.753 51.982 59.233 53.704 62.45 55.239 65.319 55.963 67.206 58.663 68.96z" fill="#ffffff" data-fill-palette-color="accent"></path><path d="M65.745 66.447L63.803 58.334C63.348 56.431 61.079 56.722 59.291 56.34 59.441 60.175 61.387 65.406 65.745 66.447" fill="#ffffff" data-fill-palette-color="accent"></path><path d="M70.871 63.814C69.02 59.774 69.111 58.521 64.799 57.6 65.202 60.345 67.938 63.536 70.871 63.814" fill="#ffffff" data-fill-palette-color="accent"></path></svg></g></svg></g></svg></g><defs></defs></svg><rect width="395.52" height="56.3615377552088" fill="none" stroke="none" visibility="hidden"></rect></g></svg></g></svg>